<?xml version="1.0" standalone="no"?>
<!DOCTYPE svg PUBLIC "-//W3C//DTD SVG 20010904//EN"
 "http://www.w3.org/TR/2001/REC-SVG-20010904/DTD/svg10.dtd">
<svg version="1.0" xmlns="http://www.w3.org/2000/svg"
 width="312.000000pt" height="140.000000pt" viewBox="0 0 312.000000 140.000000"
 preserveAspectRatio="xMidYMid meet">
<metadata>
Created by potrace 1.16, written by Peter Selinger 2001-2019
</metadata>
<g transform="translate(0.000000,140.000000) scale(0.100000,-0.100000)"
fill="#000000" stroke="none">
<path d="M207 1232 c-15 -16 -17 -47 -17 -230 0 -199 1 -213 20 -232 14 -14
33 -20 64 -20 51 0 76 19 76 57 0 25 1 25 18 10 21 -19 64 -22 93 -7 16 9 19
7 19 -8 0 -41 30 -52 137 -52 108 0 113 2 146 65 l16 30 1 -31 c0 -53 24 -64
131 -64 61 0 99 4 107 12 7 7 12 37 12 68 l0 56 49 13 c80 20 111 68 111 172
0 81 -26 130 -82 158 -37 17 -61 20 -168 20 -68 0 -133 -5 -143 -11 -10 -5
-27 -28 -38 -51 l-19 -42 0 43 c0 55 -18 62 -142 59 l-92 -2 -22 -33 c-13 -18
-33 -63 -45 -100 l-22 -66 -31 89 c-34 100 -50 115 -122 115 -27 0 -46 -6 -57
-18z m111 -35 c6 -7 30 -66 53 -131 31 -87 44 -114 51 -102 5 8 24 59 43 112
50 138 49 136 98 132 l42 -3 0 -205 0 -205 -42 -3 -42 -3 -3 118 -3 117 -35
-88 c-55 -138 -79 -139 -126 -6 -15 44 -31 80 -36 80 -4 0 -8 -50 -8 -111 l0
-110 -37 3 -38 3 -3 208 -2 207 39 0 c21 0 43 -6 49 -13z m383 -127 c-2 -74 0
-132 4 -128 4 4 28 64 54 135 l46 128 48 3 47 3 0 -210 c0 -183 -2 -211 -15
-211 -13 0 -14 4 -5 20 8 15 8 20 -1 20 -6 0 -13 -9 -16 -20 -3 -11 -14 -20
-24 -20 -18 0 -19 9 -19 117 0 64 -3 113 -7 109 -5 -4 -29 -55 -54 -114 l-46
-107 -46 -3 -47 -3 0 211 0 211 43 -3 42 -3 -4 -135z m388 127 c44 -22 64 -61
65 -124 0 -97 -40 -143 -125 -143 l-29 0 0 -70 0 -70 -45 0 -45 0 0 179 c0 98
3 193 6 210 l7 31 71 0 c39 0 82 -6 95 -13z"/>
<path d="M1370 1228 c-52 -36 -73 -71 -77 -130 -3 -38 1 -63 14 -88 l18 -35
-29 -28 c-29 -28 -32 -56 -10 -111 6 -17 4 -18 -17 -12 -13 3 -58 9 -100 13
-70 5 -78 4 -87 -14 -6 -11 -21 -86 -33 -168 -20 -131 -25 -151 -47 -170 -20
-17 -26 -36 -35 -109 -11 -87 -11 -89 12 -107 25 -21 72 -25 101 -9 11 6 22
26 26 46 6 31 9 35 33 30 14 -3 46 -8 71 -11 45 -7 46 -7 42 -41 -6 -49 19
-74 73 -74 47 0 75 22 75 60 0 22 2 22 63 15 34 -4 80 -9 102 -12 22 -2 81
-11 131 -20 97 -17 134 -13 162 15 16 16 18 16 42 -12 28 -33 76 -56 120 -56
62 0 142 59 156 117 4 12 8 23 10 23 2 0 20 -11 40 -25 20 -14 45 -25 55 -25
16 0 19 -8 19 -54 0 -64 21 -86 80 -86 19 0 51 -4 70 -10 19 -5 76 -14 125
-20 50 -6 106 -13 126 -16 43 -7 69 14 70 54 0 24 2 22 15 -13 19 -52 38 -65
95 -65 72 0 77 12 50 126 l-22 96 51 99 c34 67 49 106 45 119 -8 26 -80 63
-105 55 -11 -3 -36 -34 -55 -68 -20 -34 -34 -53 -31 -42 2 11 7 39 11 62 6 37
4 43 -18 58 -13 8 -61 20 -106 25 -45 5 -96 12 -114 15 -17 3 -50 8 -72 11
-22 3 -58 8 -81 11 -49 6 -81 -8 -87 -39 -4 -20 -4 -20 -6 4 0 15 -11 34 -23
42 -25 17 -113 22 -123 6 -3 -5 -21 2 -41 15 -69 47 -151 45 -208 -6 l-34 -29
-6 24 c-7 27 -44 57 -91 74 -29 10 -27 10 21 11 37 1 61 8 88 26 l36 24 36
-24 c51 -35 146 -35 196 -1 l35 23 9 -21 c7 -16 20 -22 53 -24 80 -6 86 -1
142 111 51 99 139 319 139 344 0 19 -42 43 -77 43 -49 0 -82 -17 -94 -47 l-11
-28 -14 27 c-8 15 -23 32 -34 38 -29 16 -106 12 -124 -6 -14 -14 -18 -14 -38
0 -48 34 -161 12 -192 -37 l-16 -24 -40 40 c-39 39 -41 39 -100 35 -39 -3 -70
-11 -87 -24 l-26 -20 -23 23 c-27 27 -98 32 -129 9 -17 -12 -23 -12 -47 0 -42
22 -110 18 -148 -8z m153 -47 c19 -19 29 -40 30 -62 2 -32 0 -34 -35 -37 -29
-2 -39 1 -48 17 -12 23 -36 28 -43 9 -9 -27 8 -50 52 -72 25 -13 54 -33 64
-44 51 -56 16 -176 -58 -200 -22 -7 -54 -11 -72 -7 -73 13 -125 94 -87 136 24
27 49 24 73 -10 25 -34 53 -44 78 -26 17 13 17 14 -1 34 -11 12 -23 21 -28 21
-22 0 -96 62 -108 90 -16 39 -8 115 16 142 48 54 119 58 167 9z m390 -1 c18
-21 27 -41 27 -65 0 -33 -2 -35 -33 -35 -20 0 -39 8 -50 20 -20 24 -35 26 -43
6 -9 -24 13 -53 60 -74 58 -28 76 -55 76 -115 0 -89 -43 -131 -132 -131 -46 0
-54 4 -85 38 -43 47 -44 95 -1 110 23 8 30 5 60 -27 26 -27 40 -35 57 -30 36
9 22 43 -29 70 -74 38 -100 74 -100 137 0 61 23 99 74 122 43 19 86 10 119
-26z m270 0 c18 -21 27 -41 27 -65 0 -33 -2 -35 -33 -35 -20 0 -39 8 -50 20
-20 24 -35 26 -43 6 -9 -24 13 -53 60 -74 58 -28 76 -55 76 -115 0 -89 -43
-131 -132 -131 -46 0 -54 4 -85 38 -43 47 -44 95 -1 110 23 8 30 5 60 -27 26
-27 40 -35 57 -30 36 9 22 43 -29 70 -74 38 -100 74 -100 137 0 61 23 99 74
122 43 19 86 10 119 -26z m-509 14 c3 -9 6 -101 6 -204 0 -181 -1 -190 -21
-200 -34 -19 -63 -8 -70 25 -4 17 -7 112 -8 213 l-1 182 44 0 c31 0 46 -5 50
-16z m687 -46 l32 -63 18 45 c11 25 23 52 27 60 9 16 92 27 92 13 0 -37 -151
-375 -182 -408 -13 -15 19 73 41 109 10 17 22 42 25 56 11 38 -51 -68 -71
-122 -15 -42 -21 -48 -45 -48 -15 0 -28 5 -28 10 0 6 18 53 40 106 l40 96 -54
96 c-57 103 -57 112 1 112 30 0 35 -5 64 -62z m-1146 -355 l60 -7 -40 -7 -40
-6 37 -2 c20 0 44 -4 54 -8 12 -4 15 -3 10 5 -11 18 29 15 66 -4 29 -15 30
-18 24 -57 -46 -298 -45 -281 -24 -298 19 -14 19 -21 9 -84 -5 -37 -14 -72
-19 -77 -5 -5 -22 -6 -37 -2 -26 7 -27 9 -22 55 6 45 4 49 -16 50 -21 0 -21 1
-2 10 15 7 7 8 -29 5 -27 -2 -43 0 -36 4 7 5 -4 9 -29 12 -22 2 -41 1 -41 -3
0 -3 -13 -4 -28 -1 -27 4 -29 1 -38 -40 -8 -39 -12 -43 -43 -46 l-34 -3 7 77
c8 88 10 94 35 94 16 0 21 16 34 103 9 56 19 127 23 157 8 69 20 92 42 86 9
-3 44 -8 77 -13z m366 -54 c63 -11 69 -14 69 -36 0 -51 -15 -62 -74 -56 -53 5
-55 5 -61 -20 -9 -35 0 -47 36 -47 33 0 44 -17 35 -56 -6 -22 -11 -25 -42 -22
-41 3 -54 -11 -54 -64 l0 -37 55 -6 c51 -7 55 -9 55 -34 0 -51 -8 -54 -110
-40 l-92 12 5 66 c2 36 15 130 27 209 l23 142 29 0 c16 0 60 -5 99 -11z m253
-53 c38 -25 49 -53 41 -105 -4 -25 -6 -86 -5 -136 1 -80 -1 -94 -22 -125 -18
-26 -32 -36 -57 -38 -50 -5 -172 18 -178 33 -7 19 46 388 58 395 16 11 138 -7
163 -24z m304 -50 c24 -24 27 -35 30 -110 4 -91 -16 -190 -45 -231 -56 -74
-168 -72 -208 4 -51 100 -12 302 68 352 45 29 119 22 155 -15z m151 -6 c11 0
12 -19 6 -98 -6 -82 -4 -100 9 -111 31 -26 50 1 66 96 l16 88 34 3 c66 5 66 5
33 -214 l-29 -199 -43 -3 -43 -3 4 64 4 65 -38 5 c-49 7 -86 31 -99 65 -7 16
-9 71 -7 130 5 109 13 127 53 117 11 -2 26 -5 34 -5z m344 -51 c37 -6 67 -15
67 -19 0 -4 -3 -22 -6 -39 -7 -32 -8 -32 -59 -30 -60 3 -75 -4 -75 -36 0 -23
17 -35 51 -35 25 0 32 -20 19 -54 -9 -23 -15 -27 -47 -24 -37 3 -38 3 -44 -40
-7 -51 0 -58 64 -67 48 -7 49 -8 43 -38 -4 -17 -10 -35 -14 -39 -9 -9 -178 14
-188 25 -3 3 8 96 25 206 17 110 31 203 31 207 0 3 15 4 33 0 17 -3 62 -10
100 -17z m154 -22 c2 -3 -3 -44 -11 -93 -24 -137 7 -143 80 -15 23 40 46 77
51 82 11 11 63 -8 63 -22 0 -5 -23 -51 -51 -104 l-51 -95 22 -96 c12 -52 20
-98 17 -100 -3 -3 -21 -2 -40 1 -34 7 -36 10 -53 73 -18 73 -40 116 -53 107
-5 -2 -12 -26 -15 -52 -14 -99 -16 -103 -44 -103 -55 0 -55 1 -22 215 16 109
30 203 30 208 0 9 67 3 77 -6z"/>
<path d="M1197 723 c-5 -9 -29 -143 -41 -235 -3 -22 0 -40 7 -46 17 -13 75
-23 81 -13 7 11 48 282 44 287 -10 9 -86 15 -91 7z"/>
<path d="M2012 558 c-17 -21 -32 -90 -32 -145 0 -42 4 -55 22 -67 24 -17 51
-8 63 21 15 40 23 124 15 154 -13 46 -46 63 -68 37z"/>
</g>
</svg>
